<?xml version="1.0" encoding="UTF-8" standalone="no"?>
<!DOCTYPE svg PUBLIC "-//W3C//DTD SVG 1.1//EN"
 "http://www.w3.org/Graphics/SVG/1.1/DTD/svg11.dtd">
<!-- Generated by graphviz version 2.49.0 (20210828.1703)
 -->
<!-- Pages: 1 -->
<svg width="860pt" height="260pt"
 viewBox="0.00 0.00 859.61 260.00" xmlns="http://www.w3.org/2000/svg" xmlns:xlink="http://www.w3.org/1999/xlink">
<g id="graph0" class="graph" transform="scale(1 1) rotate(0) translate(4 256)">
<polygon fill="white" stroke="transparent" points="-4,4 -4,-256 855.61,-256 855.61,4 -4,4"/>
<!-- [root] local_file.Britney (expand) -->
<g id="node1" class="node">
<title>[root] local_file.Britney (expand)</title>
<polygon fill="none" stroke="black" points="454.03,-108 340.03,-108 340.03,-72 454.03,-72 454.03,-108"/>
<text text-anchor="middle" x="397.03" y="-86.3" font-family="Times,serif" font-size="14.00">local_file.Britney</text>
</g>
<!-- [root] provider[&quot;registry.terraform.io/hashicorp/local&quot;] -->
<g id="node2" class="node">
<title>[root] provider[&quot;registry.terraform.io/hashicorp/local&quot;]</title>
<polygon fill="none" stroke="black" points="397.03,-36 133.44,-18 397.03,0 660.63,-18 397.03,-36"/>
<text text-anchor="middle" x="397.03" y="-14.3" font-family="Times,serif" font-size="14.00">provider[&quot;registry.terraform.io/hashicorp/local&quot;]</text>
</g>
<!-- [root] local_file.Britney (expand)&#45;&gt;[root] provider[&quot;registry.terraform.io/hashicorp/local&quot;] -->
<g id="edge1" class="edge">
<title>[root] local_file.Britney (expand)&#45;&gt;[root] provider[&quot;registry.terraform.io/hashicorp/local&quot;]</title>
<path fill="none" stroke="black" d="M397.03,-71.7C397.03,-63.98 397.03,-54.71 397.03,-46.11"/>
<polygon fill="black" stroke="black" points="400.53,-46.1 397.03,-36.1 393.53,-46.1 400.53,-46.1"/>
</g>
<!-- [root] meta.count&#45;boundary (EachMode fixup) -->
<g id="node3" class="node">
<title>[root] meta.count&#45;boundary (EachMode fixup)</title>
<ellipse fill="none" stroke="black" cx="180.03" cy="-162" rx="180.07" ry="18"/>
<text text-anchor="middle" x="180.03" y="-158.3" font-family="Times,serif" font-size="14.00">[root] meta.count&#45;boundary (EachMode fixup)</text>
</g>
<!-- [root] meta.count&#45;boundary (EachMode fixup)&#45;&gt;[root] local_file.Britney (expand) -->
<g id="edge2" class="edge">
<title>[root] meta.count&#45;boundary (EachMode fixup)&#45;&gt;[root] local_file.Britney (expand)</title>
<path fill="none" stroke="black" d="M230.64,-144.68C261.64,-134.68 301.57,-121.8 334.54,-111.16"/>
<polygon fill="black" stroke="black" points="335.64,-114.48 344.08,-108.08 333.49,-107.82 335.64,-114.48"/>
</g>
<!-- [root] provider[&quot;registry.terraform.io/hashicorp/local&quot;] (close) -->
<g id="node4" class="node">
<title>[root] provider[&quot;registry.terraform.io/hashicorp/local&quot;] (close)</title>
<ellipse fill="none" stroke="black" cx="615.03" cy="-162" rx="236.66" ry="18"/>
<text text-anchor="middle" x="615.03" y="-158.3" font-family="Times,serif" font-size="14.00">[root] provider[&quot;registry.terraform.io/hashicorp/local&quot;] (close)</text>
</g>
<!-- [root] provider[&quot;registry.terraform.io/hashicorp/local&quot;] (close)&#45;&gt;[root] local_file.Britney (expand) -->
<g id="edge3" class="edge">
<title>[root] provider[&quot;registry.terraform.io/hashicorp/local&quot;] (close)&#45;&gt;[root] local_file.Britney (expand)</title>
<path fill="none" stroke="black" d="M563.37,-144.41C532.45,-134.48 492.92,-121.79 460.16,-111.27"/>
<polygon fill="black" stroke="black" points="460.81,-107.8 450.22,-108.08 458.67,-114.47 460.81,-107.8"/>
</g>
<!-- [root] root -->
<g id="node5" class="node">
<title>[root] root</title>
<ellipse fill="none" stroke="black" cx="397.03" cy="-234" rx="48.19" ry="18"/>
<text text-anchor="middle" x="397.03" y="-230.3" font-family="Times,serif" font-size="14.00">[root] root</text>
</g>
<!-- [root] root&#45;&gt;[root] meta.count&#45;boundary (EachMode fixup) -->
<g id="edge4" class="edge">
<title>[root] root&#45;&gt;[root] meta.count&#45;boundary (EachMode fixup)</title>
<path fill="none" stroke="black" d="M361.69,-221.6C328.91,-211.03 279.48,-195.08 240.45,-182.49"/>
<polygon fill="black" stroke="black" points="241.36,-179.1 230.77,-179.36 239.21,-185.77 241.36,-179.1"/>
</g>
<!-- [root] root&#45;&gt;[root] provider[&quot;registry.terraform.io/hashicorp/local&quot;] (close) -->
<g id="edge5" class="edge">
<title>[root] root&#45;&gt;[root] provider[&quot;registry.terraform.io/hashicorp/local&quot;] (close)</title>
<path fill="none" stroke="black" d="M432.54,-221.6C465.24,-211.1 514.46,-195.29 553.55,-182.74"/>
<polygon fill="black" stroke="black" points="554.8,-186.02 563.25,-179.63 552.66,-179.35 554.8,-186.02"/>
</g>
</g>
</svg>
