<?xml version="1.0" encoding="UTF-8" standalone="no"?>
<!DOCTYPE svg PUBLIC "-//W3C//DTD SVG 1.1//EN"
 "http://www.w3.org/Graphics/SVG/1.1/DTD/svg11.dtd">
<!-- Generated by graphviz version 2.48.0 (20210717.1556)
 -->
<!-- Pages: 1 -->
<svg width="888pt" height="332pt"
 viewBox="0.00 0.00 888.42 332.00" xmlns="http://www.w3.org/2000/svg" xmlns:xlink="http://www.w3.org/1999/xlink">
<g id="graph0" class="graph" transform="scale(1 1) rotate(0) translate(4 328)">
<polygon fill="white" stroke="transparent" points="-4,4 -4,-328 884.42,-328 884.42,4 -4,4"/>
<!-- [root] output.out_cfg -->
<g id="node1" class="node">
<title>[root] output.out_cfg</title>
<polygon fill="none" stroke="black" points="603.83,-180 510.83,-180 510.83,-144 609.83,-144 609.83,-174 603.83,-180"/>
<polyline fill="none" stroke="black" points="603.83,-180 603.83,-174 "/>
<polyline fill="none" stroke="black" points="609.83,-174 603.83,-174 "/>
<text text-anchor="middle" x="560.33" y="-158.3" font-family="Times,serif" font-size="14.00">output.out_cfg</text>
</g>
<!-- [root] random_shuffle.random_cpu (expand) -->
<g id="node3" class="node">
<title>[root] random_shuffle.random_cpu (expand)</title>
<polygon fill="none" stroke="black" points="308.33,-108 130.33,-108 130.33,-72 308.33,-72 308.33,-108"/>
<text text-anchor="middle" x="219.33" y="-86.3" font-family="Times,serif" font-size="14.00">random_shuffle.random_cpu</text>
</g>
<!-- [root] output.out_cfg&#45;&gt;[root] random_shuffle.random_cpu (expand) -->
<g id="edge4" class="edge">
<title>[root] output.out_cfg&#45;&gt;[root] random_shuffle.random_cpu (expand)</title>
<path fill="none" stroke="black" d="M510.52,-146.29C507.42,-145.48 504.34,-144.71 501.33,-144 467.21,-135.9 385.34,-120.68 318.56,-108.62"/>
<polygon fill="black" stroke="black" points="318.86,-105.12 308.4,-106.79 317.62,-112.01 318.86,-105.12"/>
</g>
<!-- [root] random_shuffle.random_os (expand) -->
<g id="node4" class="node">
<title>[root] random_shuffle.random_os (expand)</title>
<polygon fill="none" stroke="black" points="496.33,-108 326.33,-108 326.33,-72 496.33,-72 496.33,-108"/>
<text text-anchor="middle" x="411.33" y="-86.3" font-family="Times,serif" font-size="14.00">random_shuffle.random_os</text>
</g>
<!-- [root] output.out_cfg&#45;&gt;[root] random_shuffle.random_os (expand) -->
<g id="edge5" class="edge">
<title>[root] output.out_cfg&#45;&gt;[root] random_shuffle.random_os (expand)</title>
<path fill="none" stroke="black" d="M523.88,-143.88C503.69,-134.39 478.41,-122.51 456.92,-112.42"/>
<polygon fill="black" stroke="black" points="458.2,-109.15 447.66,-108.07 455.22,-115.49 458.2,-109.15"/>
</g>
<!-- [root] random_shuffle.random_ram_size (expand) -->
<g id="node5" class="node">
<title>[root] random_shuffle.random_ram_size (expand)</title>
<polygon fill="none" stroke="black" points="722.33,-108 514.33,-108 514.33,-72 722.33,-72 722.33,-108"/>
<text text-anchor="middle" x="618.33" y="-86.3" font-family="Times,serif" font-size="14.00">random_shuffle.random_ram_size</text>
</g>
<!-- [root] output.out_cfg&#45;&gt;[root] random_shuffle.random_ram_size (expand) -->
<g id="edge6" class="edge">
<title>[root] output.out_cfg&#45;&gt;[root] random_shuffle.random_ram_size (expand)</title>
<path fill="none" stroke="black" d="M574.67,-143.7C581.62,-135.3 590.1,-125.07 597.73,-115.86"/>
<polygon fill="black" stroke="black" points="600.47,-118.04 604.16,-108.1 595.08,-113.57 600.47,-118.04"/>
</g>
<!-- [root] provider[&quot;registry.terraform.io/hashicorp/random&quot;] -->
<g id="node2" class="node">
<title>[root] provider[&quot;registry.terraform.io/hashicorp/random&quot;]</title>
<polygon fill="none" stroke="black" points="407.33,-36 129.66,-18 407.33,0 685,-18 407.33,-36"/>
<text text-anchor="middle" x="407.33" y="-14.3" font-family="Times,serif" font-size="14.00">provider[&quot;registry.terraform.io/hashicorp/random&quot;]</text>
</g>
<!-- [root] random_shuffle.random_cpu (expand)&#45;&gt;[root] provider[&quot;registry.terraform.io/hashicorp/random&quot;] -->
<g id="edge10" class="edge">
<title>[root] random_shuffle.random_cpu (expand)&#45;&gt;[root] provider[&quot;registry.terraform.io/hashicorp/random&quot;]</title>
<path fill="none" stroke="black" d="M265.32,-71.88C293.64,-61.33 329.91,-47.82 358.71,-37.1"/>
<polygon fill="black" stroke="black" points="360.02,-40.35 368.17,-33.58 357.57,-33.79 360.02,-40.35"/>
</g>
<!-- [root] random_shuffle.random_os (expand)&#45;&gt;[root] provider[&quot;registry.terraform.io/hashicorp/random&quot;] -->
<g id="edge11" class="edge">
<title>[root] random_shuffle.random_os (expand)&#45;&gt;[root] provider[&quot;registry.terraform.io/hashicorp/random&quot;]</title>
<path fill="none" stroke="black" d="M410.34,-71.7C409.9,-63.98 409.37,-54.71 408.88,-46.11"/>
<polygon fill="black" stroke="black" points="412.37,-45.89 408.31,-36.1 405.38,-46.29 412.37,-45.89"/>
</g>
<!-- [root] random_shuffle.random_ram_size (expand)&#45;&gt;[root] provider[&quot;registry.terraform.io/hashicorp/random&quot;] -->
<g id="edge12" class="edge">
<title>[root] random_shuffle.random_ram_size (expand)&#45;&gt;[root] provider[&quot;registry.terraform.io/hashicorp/random&quot;]</title>
<path fill="none" stroke="black" d="M566.98,-71.97C534.59,-61.22 492.86,-47.37 460.18,-36.53"/>
<polygon fill="black" stroke="black" points="460.95,-33.1 450.35,-33.27 458.74,-39.74 460.95,-33.1"/>
</g>
<!-- [root] var.svr_configs -->
<g id="node6" class="node">
<title>[root] var.svr_configs</title>
<polygon fill="none" stroke="black" points="799.33,-36 703.33,-36 703.33,0 805.33,0 805.33,-30 799.33,-36"/>
<polyline fill="none" stroke="black" points="799.33,-36 799.33,-30 "/>
<polyline fill="none" stroke="black" points="805.33,-30 799.33,-30 "/>
<text text-anchor="middle" x="754.33" y="-14.3" font-family="Times,serif" font-size="14.00">var.svr_configs</text>
</g>
<!-- [root] random_shuffle.random_ram_size (expand)&#45;&gt;[root] var.svr_configs -->
<g id="edge13" class="edge">
<title>[root] random_shuffle.random_ram_size (expand)&#45;&gt;[root] var.svr_configs</title>
<path fill="none" stroke="black" d="M651.6,-71.88C669.79,-62.51 692.52,-50.81 711.97,-40.8"/>
<polygon fill="black" stroke="black" points="713.64,-43.88 720.93,-36.19 710.44,-37.65 713.64,-43.88"/>
</g>
<!-- [root] local.lcase_cfgs (expand) -->
<g id="node7" class="node">
<title>[root] local.lcase_cfgs (expand)</title>
<ellipse fill="none" stroke="black" cx="754.33" cy="-162" rx="126.18" ry="18"/>
<text text-anchor="middle" x="754.33" y="-158.3" font-family="Times,serif" font-size="14.00">[root] local.lcase_cfgs (expand)</text>
</g>
<!-- [root] local.lcase_cfgs (expand)&#45;&gt;[root] var.svr_configs -->
<g id="edge1" class="edge">
<title>[root] local.lcase_cfgs (expand)&#45;&gt;[root] var.svr_configs</title>
<path fill="none" stroke="black" d="M754.33,-143.87C754.33,-119.67 754.33,-75.21 754.33,-46.39"/>
<polygon fill="black" stroke="black" points="757.83,-46.19 754.33,-36.19 750.83,-46.19 757.83,-46.19"/>
</g>
<!-- [root] meta.count&#45;boundary (EachMode fixup) -->
<g id="node8" class="node">
<title>[root] meta.count&#45;boundary (EachMode fixup)</title>
<ellipse fill="none" stroke="black" cx="560.33" cy="-234" rx="180.07" ry="18"/>
<text text-anchor="middle" x="560.33" y="-230.3" font-family="Times,serif" font-size="14.00">[root] meta.count&#45;boundary (EachMode fixup)</text>
</g>
<!-- [root] meta.count&#45;boundary (EachMode fixup)&#45;&gt;[root] output.out_cfg -->
<g id="edge3" class="edge">
<title>[root] meta.count&#45;boundary (EachMode fixup)&#45;&gt;[root] output.out_cfg</title>
<path fill="none" stroke="black" d="M560.33,-215.7C560.33,-207.98 560.33,-198.71 560.33,-190.11"/>
<polygon fill="black" stroke="black" points="563.83,-190.1 560.33,-180.1 556.83,-190.1 563.83,-190.1"/>
</g>
<!-- [root] meta.count&#45;boundary (EachMode fixup)&#45;&gt;[root] local.lcase_cfgs (expand) -->
<g id="edge2" class="edge">
<title>[root] meta.count&#45;boundary (EachMode fixup)&#45;&gt;[root] local.lcase_cfgs (expand)</title>
<path fill="none" stroke="black" d="M606.3,-216.41C634.49,-206.24 670.71,-193.17 700.27,-182.51"/>
<polygon fill="black" stroke="black" points="701.8,-185.67 710.02,-178.99 699.42,-179.09 701.8,-185.67"/>
</g>
<!-- [root] provider[&quot;registry.terraform.io/hashicorp/random&quot;] (close) -->
<g id="node9" class="node">
<title>[root] provider[&quot;registry.terraform.io/hashicorp/random&quot;] (close)</title>
<ellipse fill="none" stroke="black" cx="246.33" cy="-162" rx="246.16" ry="18"/>
<text text-anchor="middle" x="246.33" y="-158.3" font-family="Times,serif" font-size="14.00">[root] provider[&quot;registry.terraform.io/hashicorp/random&quot;] (close)</text>
</g>
<!-- [root] provider[&quot;registry.terraform.io/hashicorp/random&quot;] (close)&#45;&gt;[root] random_shuffle.random_cpu (expand) -->
<g id="edge7" class="edge">
<title>[root] provider[&quot;registry.terraform.io/hashicorp/random&quot;] (close)&#45;&gt;[root] random_shuffle.random_cpu (expand)</title>
<path fill="none" stroke="black" d="M239.65,-143.7C236.61,-135.81 232.95,-126.3 229.57,-117.55"/>
<polygon fill="black" stroke="black" points="232.79,-116.17 225.93,-108.1 226.26,-118.69 232.79,-116.17"/>
</g>
<!-- [root] provider[&quot;registry.terraform.io/hashicorp/random&quot;] (close)&#45;&gt;[root] random_shuffle.random_os (expand) -->
<g id="edge8" class="edge">
<title>[root] provider[&quot;registry.terraform.io/hashicorp/random&quot;] (close)&#45;&gt;[root] random_shuffle.random_os (expand)</title>
<path fill="none" stroke="black" d="M286.27,-144.05C309,-134.41 337.67,-122.25 361.83,-112"/>
<polygon fill="black" stroke="black" points="363.34,-115.16 371.18,-108.03 360.61,-108.72 363.34,-115.16"/>
</g>
<!-- [root] provider[&quot;registry.terraform.io/hashicorp/random&quot;] (close)&#45;&gt;[root] random_shuffle.random_ram_size (expand) -->
<g id="edge9" class="edge">
<title>[root] provider[&quot;registry.terraform.io/hashicorp/random&quot;] (close)&#45;&gt;[root] random_shuffle.random_ram_size (expand)</title>
<path fill="none" stroke="black" d="M331.21,-145.03C386.75,-134.58 459.58,-120.87 517.99,-109.88"/>
<polygon fill="black" stroke="black" points="518.79,-113.29 527.97,-108 517.5,-106.41 518.79,-113.29"/>
</g>
<!-- [root] root -->
<g id="node10" class="node">
<title>[root] root</title>
<ellipse fill="none" stroke="black" cx="403.33" cy="-306" rx="48.19" ry="18"/>
<text text-anchor="middle" x="403.33" y="-302.3" font-family="Times,serif" font-size="14.00">[root] root</text>
</g>
<!-- [root] root&#45;&gt;[root] meta.count&#45;boundary (EachMode fixup) -->
<g id="edge14" class="edge">
<title>[root] root&#45;&gt;[root] meta.count&#45;boundary (EachMode fixup)</title>
<path fill="none" stroke="black" d="M433.23,-291.67C455.97,-281.53 487.68,-267.39 513.74,-255.77"/>
<polygon fill="black" stroke="black" points="515.35,-258.89 523.06,-251.62 512.5,-252.49 515.35,-258.89"/>
</g>
<!-- [root] root&#45;&gt;[root] provider[&quot;registry.terraform.io/hashicorp/random&quot;] (close) -->
<g id="edge15" class="edge">
<title>[root] root&#45;&gt;[root] provider[&quot;registry.terraform.io/hashicorp/random&quot;] (close)</title>
<path fill="none" stroke="black" d="M385.62,-288.99C358.12,-264.11 304.97,-216.04 272.87,-187"/>
<polygon fill="black" stroke="black" points="274.95,-184.17 265.19,-180.06 270.25,-189.36 274.95,-184.17"/>
</g>
</g>
</svg>
