<?xml version="1.0" encoding="UTF-8" standalone="no"?>
<!DOCTYPE svg PUBLIC "-//W3C//DTD SVG 1.1//EN"
 "http://www.w3.org/Graphics/SVG/1.1/DTD/svg11.dtd">
<!-- Generated by graphviz version 2.48.0 (20210717.1556)
 -->
<!-- Pages: 1 -->
<svg width="882pt" height="260pt"
 viewBox="0.00 0.00 882.31 260.00" xmlns="http://www.w3.org/2000/svg" xmlns:xlink="http://www.w3.org/1999/xlink">
<g id="graph0" class="graph" transform="scale(1 1) rotate(0) translate(4 256)">
<polygon fill="white" stroke="transparent" points="-4,4 -4,-256 878.31,-256 878.31,4 -4,4"/>
<!-- [root] azurerm_resource_group.rgtf (expand) -->
<g id="node1" class="node">
<title>[root] azurerm_resource_group.rgtf (expand)</title>
<polygon fill="none" stroke="black" points="493.03,-108 313.03,-108 313.03,-72 493.03,-72 493.03,-108"/>
<text text-anchor="middle" x="403.03" y="-86.3" font-family="Times,serif" font-size="14.00">azurerm_resource_group.rgtf</text>
</g>
<!-- [root] provider[&quot;registry.terraform.io/hashicorp/azurerm&quot;] -->
<g id="node2" class="node">
<title>[root] provider[&quot;registry.terraform.io/hashicorp/azurerm&quot;]</title>
<polygon fill="none" stroke="black" points="403.03,-36 122.85,-18 403.03,0 683.22,-18 403.03,-36"/>
<text text-anchor="middle" x="403.03" y="-14.3" font-family="Times,serif" font-size="14.00">provider[&quot;registry.terraform.io/hashicorp/azurerm&quot;]</text>
</g>
<!-- [root] azurerm_resource_group.rgtf (expand)&#45;&gt;[root] provider[&quot;registry.terraform.io/hashicorp/azurerm&quot;] -->
<g id="edge1" class="edge">
<title>[root] azurerm_resource_group.rgtf (expand)&#45;&gt;[root] provider[&quot;registry.terraform.io/hashicorp/azurerm&quot;]</title>
<path fill="none" stroke="black" d="M403.03,-71.7C403.03,-63.98 403.03,-54.71 403.03,-46.11"/>
<polygon fill="black" stroke="black" points="406.53,-46.1 403.03,-36.1 399.53,-46.1 406.53,-46.1"/>
</g>
<!-- [root] meta.count&#45;boundary (EachMode fixup) -->
<g id="node3" class="node">
<title>[root] meta.count&#45;boundary (EachMode fixup)</title>
<ellipse fill="none" stroke="black" cx="180.03" cy="-162" rx="180.07" ry="18"/>
<text text-anchor="middle" x="180.03" y="-158.3" font-family="Times,serif" font-size="14.00">[root] meta.count&#45;boundary (EachMode fixup)</text>
</g>
<!-- [root] meta.count&#45;boundary (EachMode fixup)&#45;&gt;[root] azurerm_resource_group.rgtf (expand) -->
<g id="edge2" class="edge">
<title>[root] meta.count&#45;boundary (EachMode fixup)&#45;&gt;[root] azurerm_resource_group.rgtf (expand)</title>
<path fill="none" stroke="black" d="M232.04,-144.68C263.9,-134.68 304.93,-121.8 338.81,-111.16"/>
<polygon fill="black" stroke="black" points="340.12,-114.42 348.62,-108.08 338.03,-107.74 340.12,-114.42"/>
</g>
<!-- [root] provider[&quot;registry.terraform.io/hashicorp/azurerm&quot;] (close) -->
<g id="node4" class="node">
<title>[root] provider[&quot;registry.terraform.io/hashicorp/azurerm&quot;] (close)</title>
<ellipse fill="none" stroke="black" cx="626.03" cy="-162" rx="248.06" ry="18"/>
<text text-anchor="middle" x="626.03" y="-158.3" font-family="Times,serif" font-size="14.00">[root] provider[&quot;registry.terraform.io/hashicorp/azurerm&quot;] (close)</text>
</g>
<!-- [root] provider[&quot;registry.terraform.io/hashicorp/azurerm&quot;] (close)&#45;&gt;[root] azurerm_resource_group.rgtf (expand) -->
<g id="edge3" class="edge">
<title>[root] provider[&quot;registry.terraform.io/hashicorp/azurerm&quot;] (close)&#45;&gt;[root] azurerm_resource_group.rgtf (expand)</title>
<path fill="none" stroke="black" d="M573.19,-144.41C541.42,-134.44 500.77,-121.68 467.17,-111.13"/>
<polygon fill="black" stroke="black" points="468.03,-107.73 457.44,-108.08 465.93,-114.41 468.03,-107.73"/>
</g>
<!-- [root] root -->
<g id="node5" class="node">
<title>[root] root</title>
<ellipse fill="none" stroke="black" cx="403.03" cy="-234" rx="48.19" ry="18"/>
<text text-anchor="middle" x="403.03" y="-230.3" font-family="Times,serif" font-size="14.00">[root] root</text>
</g>
<!-- [root] root&#45;&gt;[root] meta.count&#45;boundary (EachMode fixup) -->
<g id="edge4" class="edge">
<title>[root] root&#45;&gt;[root] meta.count&#45;boundary (EachMode fixup)</title>
<path fill="none" stroke="black" d="M367.21,-221.75C333.42,-211.15 282.1,-195.04 241.73,-182.37"/>
<polygon fill="black" stroke="black" points="242.57,-178.96 231.99,-179.31 240.48,-185.64 242.57,-178.96"/>
</g>
<!-- [root] root&#45;&gt;[root] provider[&quot;registry.terraform.io/hashicorp/azurerm&quot;] (close) -->
<g id="edge5" class="edge">
<title>[root] root&#45;&gt;[root] provider[&quot;registry.terraform.io/hashicorp/azurerm&quot;] (close)</title>
<path fill="none" stroke="black" d="M438.86,-221.75C472.3,-211.26 522.94,-195.36 563.11,-182.75"/>
<polygon fill="black" stroke="black" points="564.33,-186.04 572.82,-179.7 562.23,-179.36 564.33,-186.04"/>
</g>
</g>
</svg>
